P3
50 50
255
0 0 0
5 0 0
10 0 0
15 0 0
20 0 0
25 0 0
30 0 0
35 0 0
40 0 0
46 0 0
51 0 0
56 0 0
61 0 0
66 0 0
71 0 0
76 0 0
81 0 0
87 0 0
92 0 0
97 0 0
102 0 0
107 0 0
112 0 0
117 0 0
122 0 0
127 0 0
133 0 0
138 0 0
143 0 0
148 0 0
153 0 0
158 0 0
163 0 0
168 0 0
174 0 0
179 0 0
184 0 0
189 0 0
194 0 0
199 0 0
204 0 0
209 0 0
215 0 0
220 0 0
225 0 0
230 0 0
235 0 0
240 0 0
245 0 0
250 0 0
0 5 0
5 5 0
10 5 0
15 5 0
20 5 0
25 5 0
30 5 0
35 5 0
40 5 0
46 5 0
51 5 0
56 5 0
61 5 0
66 5 0
71 5 0
76 5 0
81 5 0
87 5 0
92 5 0
97 5 0
102 5 0
107 5 0
112 5 0
117 5 0
122 5 0
127 5 0
133 5 0
138 5 0
143 5 0
148 5 0
153 5 0
158 5 0
163 5 0
168 5 0
174 5 0
179 5 0
184 5 0
189 5 0
194 5 0
199 5 0
204 5 0
209 5 0
215 5 0
220 5 0
225 5 0
230 5 0
235 5 0
240 5 0
245 5 0
250 5 0
0 10 0
5 10 0
10 10 0
15 10 0
20 10 0
25 10 0
30 10 0
35 10 0
40 10 0
46 10 0
51 10 0
56 10 0
61 10 0
66 10 0
71 10 0
76 10 0
81 10 0
87 10 0
92 10 0
97 10 0
102 10 0
107 10 0
112 10 0
117 10 0
122 10 0
127 10 0
133 10 0
138 10 0
143 10 0
148 10 0
153 10 0
158 10 0
163 10 0
168 10 0
174 10 0
179 10 0
184 10 0
189 10 0
194 10 0
199 10 0
204 10 0
209 10 0
215 10 0
220 10 0
225 10 0
230 10 0
235 10 0
240 10 0
245 10 0
250 10 0
0 15 0
5 15 0
10 15 0
15 15 0
20 15 0
25 15 0
30 15 0
35 15 0
40 15 0
46 15 0
51 15 0
56 15 0
61 15 0
66 15 0
71 15 0
76 15 0
81 15 0
87 15 0
92 15 0
97 15 0
102 15 0
107 15 0
112 15 0
117 15 0
122 15 0
127 15 0
133 15 0
138 15 0
143 15 0
148 15 0
153 15 0
158 15 0
163 15 0
168 15 0
174 15 0
179 15 0
184 15 0
189 15 0
194 15 0
199 15 0
204 15 0
209 15 0
215 15 0
220 15 0
225 15 0
230 15 0
235 15 0
240 15 0
245 15 0
250 15 0
0 20 0
5 20 0
10 20 0
15 20 0
20 20 0
25 20 0
30 20 0
35 20 0
40 20 0
46 20 0
51 20 0
56 20 0
61 20 0
66 20 0
71 20 0
76 20 0
81 20 0
87 20 0
92 20 0
97 20 0
102 20 0
107 20 0
112 20 0
117 20 0
122 20 0
127 20 0
133 20 0
138 20 0
143 20 0
148 20 0
153 20 0
158 20 0
163 20 0
168 20 0
174 20 0
179 20 0
184 20 0
189 20 0
194 20 0
199 20 0
204 20 0
209 20 0
215 20 0
220 20 0
225 20 0
230 20 0
235 20 0
240 20 0
245 20 0
250 20 0
0 25 0
5 25 0
10 25 0
15 25 0
20 25 0
25 25 0
30 25 0
35 25 0
40 25 0
46 25 0
51 25 0
56 25 0
61 25 0
66 25 0
71 25 0
76 25 0
81 25 0
87 25 0
92 25 0
97 25 0
102 25 0
107 25 0
112 25 0
117 25 0
122 25 0
127 25 0
133 25 0
138 25 0
143 25 0
148 25 0
153 25 0
158 25 0
163 25 0
168 25 0
174 25 0
179 25 0
184 25 0
189 25 0
194 25 0
199 25 0
204 25 0
209 25 0
215 25 0
220 25 0
225 25 0
230 25 0
235 25 0
240 25 0
245 25 0
250 25 0
0 30 0
5 30 0
10 30 0
15 30 0
20 30 0
25 30 0
30 30 0
35 30 0
40 30 0
46 30 0
51 30 0
56 30 0
61 30 0
66 30 0
71 30 0
76 30 0
81 30 0
87 30 0
92 30 0
97 30 0
102 30 0
107 30 0
112 30 0
117 30 0
122 30 0
127 30 0
133 30 0
138 30 0
143 30 0
148 30 0
153 30 0
158 30 0
163 30 0
168 30 0
174 30 0
179 30 0
184 30 0
189 30 0
194 30 0
199 30 0
204 30 0
209 30 0
215 30 0
220 30 0
225 30 0
230 30 0
235 30 0
240 30 0
245 30 0
250 30 0
0 35 0
5 35 0
10 35 0
15 35 0
20 35 0
25 35 0
30 35 0
35 35 0
40 35 0
46 35 0
51 35 0
56 35 0
61 35 0
66 35 0
71 35 0
76 35 0
81 35 0
87 35 0
92 35 0
97 35 0
102 35 0
107 35 0
112 35 0
117 35 0
122 35 0
127 35 0
133 35 0
138 35 0
143 35 0
148 35 0
153 35 0
158 35 0
163 35 0
168 35 0
174 35 0
179 35 0
184 35 0
189 35 0
194 35 0
199 35 0
204 35 0
209 35 0
215 35 0
220 35 0
225 35 0
230 35 0
235 35 0
240 35 0
245 35 0
250 35 0
0 40 0
5 40 0
10 40 0
15 40 0
20 40 0
25 40 0
30 40 0
35 40 0
40 40 0
46 40 0
51 40 0
56 40 0
61 40 0
66 40 0
71 40 0
76 40 0
81 40 0
87 40 0
92 40 0
97 40 0
102 40 0
107 40 0
112 40 0
117 40 0
122 40 0
127 40 0
133 40 0
138 40 0
143 40 0
148 40 0
153 40 0
158 40 0
163 40 0
168 40 0
174 40 0
179 40 0
184 40 0
189 40 0
194 40 0
199 40 0
204 40 0
209 40 0
215 40 0
220 40 0
225 40 0
230 40 0
235 40 0
240 40 0
245 40 0
250 40 0
0 46 0
5 46 0
10 46 0
15 46 0
20 46 0
25 46 0
30 46 0
35 46 0
40 46 0
46 46 0
51 46 0
56 46 0
61 46 0
66 46 0
71 46 0
76 46 0
81 46 0
87 46 0
92 46 0
97 46 0
102 46 0
107 46 0
112 46 0
117 46 0
122 46 0
127 46 0
133 46 0
138 46 0
143 46 0
148 46 0
153 46 0
158 46 0
163 46 0
168 46 0
174 46 0
179 46 0
184 46 0
189 46 0
194 46 0
199 46 0
204 46 0
209 46 0
215 46 0
220 46 0
225 46 0
230 46 0
235 46 0
240 46 0
245 46 0
250 46 0
0 51 0
5 51 0
10 51 0
15 51 0
20 51 0
25 51 0
30 51 0
35 51 0
40 51 0
46 51 0
51 51 0
56 51 0
61 51 0
66 51 0
71 51 0
76 51 0
81 51 0
87 51 0
92 51 0
97 51 0
102 51 0
107 51 0
112 51 0
117 51 0
122 51 0
127 51 0
133 51 0
138 51 0
143 51 0
148 51 0
153 51 0
158 51 0
163 51 0
168 51 0
174 51 0
179 51 0
184 51 0
189 51 0
194 51 0
199 51 0
204 51 0
209 51 0
215 51 0
220 51 0
225 51 0
230 51 0
235 51 0
240 51 0
245 51 0
250 51 0
0 56 0
5 56 0
10 56 0
15 56 0
20 56 0
25 56 0
30 56 0
35 56 0
40 56 0
46 56 0
51 56 0
56 56 0
61 56 0
66 56 0
71 56 0
76 56 0
81 56 0
87 56 0
92 56 0
97 56 0
102 56 0
107 56 0
112 56 0
117 56 0
122 56 0
127 56 0
133 56 0
138 56 0
143 56 0
148 56 0
153 56 0
158 56 0
163 56 0
168 56 0
174 56 0
179 56 0
184 56 0
189 56 0
194 56 0
199 56 0
204 56 0
209 56 0
215 56 0
220 56 0
225 56 0
230 56 0
235 56 0
240 56 0
245 56 0
250 56 0
0 61 0
5 61 0
10 61 0
15 61 0
20 61 0
25 61 0
30 61 0
35 61 0
40 61 0
46 61 0
51 61 0
56 61 0
61 61 0
66 61 0
71 61 0
76 61 0
81 61 0
87 61 0
92 61 0
97 61 0
102 61 0
107 61 0
112 61 0
117 61 0
122 61 0
127 61 0
133 61 0
138 61 0
143 61 0
148 61 0
153 61 0
158 61 0
163 61 0
168 61 0
174 61 0
179 61 0
184 61 0
189 61 0
194 61 0
199 61 0
204 61 0
209 61 0
215 61 0
220 61 0
225 61 0
230 61 0
235 61 0
240 61 0
245 61 0
250 61 0
0 66 0
5 66 0
10 66 0
15 66 0
20 66 0
25 66 0
30 66 0
35 66 0
40 66 0
46 66 0
51 66 0
56 66 0
61 66 0
66 66 0
71 66 0
76 66 0
81 66 0
87 66 0
92 66 0
97 66 0
102 66 0
107 66 0
112 66 0
117 66 0
122 66 0
127 66 0
133 66 0
138 66 0
143 66 0
148 66 0
153 66 0
158 66 0
163 66 0
168 66 0
174 66 0
179 66 0
184 66 0
189 66 0
194 66 0
199 66 0
204 66 0
209 66 0
215 66 0
220 66 0
225 66 0
230 66 0
235 66 0
240 66 0
245 66 0
250 66 0
0 71 0
5 71 0
10 71 0
15 71 0
20 71 0
25 71 0
30 71 0
35 71 0
40 71 0
46 71 0
51 71 0
56 71 0
61 71 0
66 71 0
71 71 0
76 71 0
81 71 0
87 71 0
92 71 0
97 71 0
102 71 0
107 71 0
112 71 0
117 71 0
122 71 0
127 71 0
133 71 0
138 71 0
143 71 0
148 71 0
153 71 0
158 71 0
163 71 0
168 71 0
174 71 0
179 71 0
184 71 0
189 71 0
194 71 0
199 71 0
204 71 0
209 71 0
215 71 0
220 71 0
225 71 0
230 71 0
235 71 0
240 71 0
245 71 0
250 71 0
0 76 0
5 76 0
10 76 0
15 76 0
20 76 0
25 76 0
30 76 0
35 76 0
40 76 0
46 76 0
51 76 0
56 76 0
61 76 0
66 76 0
71 76 0
76 76 0
81 76 0
87 76 0
92 76 0
97 76 0
102 76 0
107 76 0
112 76 0
117 76 0
122 76 0
127 76 0
133 76 0
138 76 0
143 76 0
148 76 0
153 76 0
158 76 0
163 76 0
168 76 0
174 76 0
179 76 0
184 76 0
189 76 0
194 76 0
199 76 0
204 76 0
209 76 0
215 76 0
220 76 0
225 76 0
230 76 0
235 76 0
240 76 0
245 76 0
250 76 0
0 81 0
5 81 0
10 81 0
15 81 0
20 81 0
25 81 0
30 81 0
35 81 0
40 81 0
46 81 0
51 81 0
56 81 0
61 81 0
66 81 0
71 81 0
76 81 0
81 81 0
87 81 0
92 81 0
97 81 0
102 81 0
107 81 0
112 81 0
117 81 0
122 81 0
127 81 0
133 81 0
138 81 0
143 81 0
148 81 0
153 81 0
158 81 0
163 81 0
168 81 0
174 81 0
179 81 0
184 81 0
189 81 0
194 81 0
199 81 0
204 81 0
209 81 0
215 81 0
220 81 0
225 81 0
230 81 0
235 81 0
240 81 0
245 81 0
250 81 0
0 87 0
5 87 0
10 87 0
15 87 0
20 87 0
25 87 0
30 87 0
35 87 0
40 87 0
46 87 0
51 87 0
56 87 0
61 87 0
66 87 0
71 87 0
76 87 0
81 87 0
87 87 0
92 87 0
97 87 0
102 87 0
107 87 0
112 87 0
117 87 0
122 87 0
127 87 0
133 87 0
138 87 0
143 87 0
148 87 0
153 87 0
158 87 0
163 87 0
168 87 0
174 87 0
179 87 0
184 87 0
189 87 0
194 87 0
199 87 0
204 87 0
209 87 0
215 87 0
220 87 0
225 87 0
230 87 0
235 87 0
240 87 0
245 87 0
250 87 0
0 92 0
5 92 0
10 92 0
15 92 0
20 92 0
25 92 0
30 92 0
35 92 0
40 92 0
46 92 0
51 92 0
56 92 0
61 92 0
66 92 0
71 92 0
76 92 0
81 92 0
87 92 0
92 92 0
97 92 0
102 92 0
107 92 0
112 92 0
117 92 0
122 92 0
127 92 0
133 92 0
138 92 0
143 92 0
148 92 0
153 92 0
158 92 0
163 92 0
168 92 0
174 92 0
179 92 0
184 92 0
189 92 0
194 92 0
199 92 0
204 92 0
209 92 0
215 92 0
220 92 0
225 92 0
230 92 0
235 92 0
240 92 0
245 92 0
250 92 0
0 97 0
5 97 0
10 97 0
15 97 0
20 97 0
25 97 0
30 97 0
35 97 0
40 97 0
46 97 0
51 97 0
56 97 0
61 97 0
66 97 0
71 97 0
76 97 0
81 97 0
87 97 0
92 97 0
97 97 0
102 97 0
107 97 0
112 97 0
117 97 0
122 97 0
127 97 0
133 97 0
138 97 0
143 97 0
148 97 0
153 97 0
158 97 0
163 97 0
168 97 0
174 97 0
179 97 0
184 97 0
189 97 0
194 97 0
199 97 0
204 97 0
209 97 0
215 97 0
220 97 0
225 97 0
230 97 0
235 97 0
240 97 0
245 97 0
250 97 0
0 102 0
5 102 0
10 102 0
15 102 0
20 102 0
25 102 0
30 102 0
35 102 0
40 102 0
46 102 0
51 102 0
56 102 0
61 102 0
66 102 0
71 102 0
76 102 0
81 102 0
87 102 0
92 102 0
97 102 0
102 102 0
107 102 0
112 102 0
117 102 0
122 102 0
127 102 0
133 102 0
138 102 0
143 102 0
148 102 0
153 102 0
158 102 0
163 102 0
168 102 0
174 102 0
179 102 0
184 102 0
189 102 0
194 102 0
199 102 0
204 102 0
209 102 0
215 102 0
220 102 0
225 102 0
230 102 0
235 102 0
240 102 0
245 102 0
250 102 0
0 107 0
5 107 0
10 107 0
15 107 0
20 107 0
25 107 0
30 107 0
35 107 0
40 107 0
46 107 0
51 107 0
56 107 0
61 107 0
66 107 0
71 107 0
76 107 0
81 107 0
87 107 0
92 107 0
97 107 0
102 107 0
107 107 0
112 107 0
117 107 0
122 107 0
127 107 0
133 107 0
138 107 0
143 107 0
148 107 0
153 107 0
158 107 0
163 107 0
168 107 0
174 107 0
179 107 0
184 107 0
189 107 0
194 107 0
199 107 0
204 107 0
209 107 0
215 107 0
220 107 0
225 107 0
230 107 0
235 107 0
240 107 0
245 107 0
250 107 0
0 112 0
5 112 0
10 112 0
15 112 0
20 112 0
25 112 0
30 112 0
35 112 0
40 112 0
46 112 0
51 112 0
56 112 0
61 112 0
66 112 0
71 112 0
76 112 0
81 112 0
87 112 0
92 112 0
97 112 0
102 112 0
107 112 0
112 112 0
117 112 0
122 112 0
127 112 0
133 112 0
138 112 0
143 112 0
148 112 0
153 112 0
158 112 0
163 112 0
168 112 0
174 112 0
179 112 0
184 112 0
189 112 0
194 112 0
199 112 0
204 112 0
209 112 0
215 112 0
220 112 0
225 112 0
230 112 0
235 112 0
240 112 0
245 112 0
250 112 0
0 117 0
5 117 0
10 117 0
15 117 0
20 117 0
25 117 0
30 117 0
35 117 0
40 117 0
46 117 0
51 117 0
56 117 0
61 117 0
66 117 0
71 117 0
76 117 0
81 117 0
87 117 0
92 117 0
97 117 0
102 117 0
107 117 0
112 117 0
117 117 0
122 117 0
127 117 0
133 117 0
138 117 0
143 117 0
148 117 0
153 117 0
158 117 0
163 117 0
168 117 0
174 117 0
179 117 0
184 117 0
189 117 0
194 117 0
199 117 0
204 117 0
209 117 0
215 117 0
220 117 0
225 117 0
230 117 0
235 117 0
240 117 0
245 117 0
250 117 0
0 122 0
5 122 0
10 122 0
15 122 0
20 122 0
25 122 0
30 122 0
35 122 0
40 122 0
46 122 0
51 122 0
56 122 0
61 122 0
66 122 0
71 122 0
76 122 0
81 122 0
87 122 0
92 122 0
97 122 0
102 122 0
107 122 0
112 122 0
117 122 0
122 122 0
127 122 0
133 122 0
138 122 0
143 122 0
148 122 0
153 122 0
158 122 0
163 122 0
168 122 0
174 122 0
179 122 0
184 122 0
189 122 0
194 122 0
199 122 0
204 122 0
209 122 0
215 122 0
220 122 0
225 122 0
230 122 0
235 122 0
240 122 0
245 122 0
250 122 0
0 127 0
5 127 0
10 127 0
15 127 0
20 127 0
25 127 0
30 127 0
35 127 0
40 127 0
46 127 0
51 127 0
56 127 0
61 127 0
66 127 0
71 127 0
76 127 0
81 127 0
87 127 0
92 127 0
97 127 0
102 127 0
107 127 0
112 127 0
117 127 0
122 127 0
127 127 0
133 127 0
138 127 0
143 127 0
148 127 0
153 127 0
158 127 0
163 127 0
168 127 0
174 127 0
179 127 0
184 127 0
189 127 0
194 127 0
199 127 0
204 127 0
209 127 0
215 127 0
220 127 0
225 127 0
230 127 0
235 127 0
240 127 0
245 127 0
250 127 0
0 133 0
5 133 0
10 133 0
15 133 0
20 133 0
25 133 0
30 133 0
35 133 0
40 133 0
46 133 0
51 133 0
56 133 0
61 133 0
66 133 0
71 133 0
76 133 0
81 133 0
87 133 0
92 133 0
97 133 0
102 133 0
107 133 0
112 133 0
117 133 0
122 133 0
127 133 0
133 133 0
138 133 0
143 133 0
148 133 0
153 133 0
158 133 0
163 133 0
168 133 0
174 133 0
179 133 0
184 133 0
189 133 0
194 133 0
199 133 0
204 133 0
209 133 0
215 133 0
220 133 0
225 133 0
230 133 0
235 133 0
240 133 0
245 133 0
250 133 0
0 138 0
5 138 0
10 138 0
15 138 0
20 138 0
25 138 0
30 138 0
35 138 0
40 138 0
46 138 0
51 138 0
56 138 0
61 138 0
66 138 0
71 138 0
76 138 0
81 138 0
87 138 0
92 138 0
97 138 0
102 138 0
107 138 0
112 138 0
117 138 0
122 138 0
127 138 0
133 138 0
138 138 0
143 138 0
148 138 0
153 138 0
158 138 0
163 138 0
168 138 0
174 138 0
179 138 0
184 138 0
189 138 0
194 138 0
199 138 0
204 138 0
209 138 0
215 138 0
220 138 0
225 138 0
230 138 0
235 138 0
240 138 0
245 138 0
250 138 0
0 143 0
5 143 0
10 143 0
15 143 0
20 143 0
25 143 0
30 143 0
35 143 0
40 143 0
46 143 0
51 143 0
56 143 0
61 143 0
66 143 0
71 143 0
76 143 0
81 143 0
87 143 0
92 143 0
97 143 0
102 143 0
107 143 0
112 143 0
117 143 0
122 143 0
127 143 0
133 143 0
138 143 0
143 143 0
148 143 0
153 143 0
158 143 0
163 143 0
168 143 0
174 143 0
179 143 0
184 143 0
189 143 0
194 143 0
199 143 0
204 143 0
209 143 0
215 143 0
220 143 0
225 143 0
230 143 0
235 143 0
240 143 0
245 143 0
250 143 0
0 148 0
5 148 0
10 148 0
15 148 0
20 148 0
25 148 0
30 148 0
35 148 0
40 148 0
46 148 0
51 148 0
56 148 0
61 148 0
66 148 0
71 148 0
76 148 0
81 148 0
87 148 0
92 148 0
97 148 0
102 148 0
107 148 0
112 148 0
117 148 0
122 148 0
127 148 0
133 148 0
138 148 0
143 148 0
148 148 0
153 148 0
158 148 0
163 148 0
168 148 0
174 148 0
179 148 0
184 148 0
189 148 0
194 148 0
199 148 0
204 148 0
209 148 0
215 148 0
220 148 0
225 148 0
230 148 0
235 148 0
240 148 0
245 148 0
250 148 0
0 153 0
5 153 0
10 153 0
15 153 0
20 153 0
25 153 0
30 153 0
35 153 0
40 153 0
46 153 0
51 153 0
56 153 0
61 153 0
66 153 0
71 153 0
76 153 0
81 153 0
87 153 0
92 153 0
97 153 0
102 153 0
107 153 0
112 153 0
117 153 0
122 153 0
127 153 0
133 153 0
138 153 0
143 153 0
148 153 0
153 153 0
158 153 0
163 153 0
168 153 0
174 153 0
179 153 0
184 153 0
189 153 0
194 153 0
199 153 0
204 153 0
209 153 0
215 153 0
220 153 0
225 153 0
230 153 0
235 153 0
240 153 0
245 153 0
250 153 0
0 158 0
5 158 0
10 158 0
15 158 0
20 158 0
25 158 0
30 158 0
35 158 0
40 158 0
46 158 0
51 158 0
56 158 0
61 158 0
66 158 0
71 158 0
76 158 0
81 158 0
87 158 0
92 158 0
97 158 0
102 158 0
107 158 0
112 158 0
117 158 0
122 158 0
127 158 0
133 158 0
138 158 0
143 158 0
148 158 0
153 158 0
158 158 0
163 158 0
168 158 0
174 158 0
179 158 0
184 158 0
189 158 0
194 158 0
199 158 0
204 158 0
209 158 0
215 158 0
220 158 0
225 158 0
230 158 0
235 158 0
240 158 0
245 158 0
250 158 0
0 163 0
5 163 0
10 163 0
15 163 0
20 163 0
25 163 0
30 163 0
35 163 0
40 163 0
46 163 0
51 163 0
56 163 0
61 163 0
66 163 0
71 163 0
76 163 0
81 163 0
87 163 0
92 163 0
97 163 0
102 163 0
107 163 0
112 163 0
117 163 0
122 163 0
127 163 0
133 163 0
138 163 0
143 163 0
148 163 0
153 163 0
158 163 0
163 163 0
168 163 0
174 163 0
179 163 0
184 163 0
189 163 0
194 163 0
199 163 0
204 163 0
209 163 0
215 163 0
220 163 0
225 163 0
230 163 0
235 163 0
240 163 0
245 163 0
250 163 0
0 168 0
5 168 0
10 168 0
15 168 0
20 168 0
25 168 0
30 168 0
35 168 0
40 168 0
46 168 0
51 168 0
56 168 0
61 168 0
66 168 0
71 168 0
76 168 0
81 168 0
87 168 0
92 168 0
97 168 0
102 168 0
107 168 0
112 168 0
117 168 0
122 168 0
127 168 0
133 168 0
138 168 0
143 168 0
148 168 0
153 168 0
158 168 0
163 168 0
168 168 0
174 168 0
179 168 0
184 168 0
189 168 0
194 168 0
199 168 0
204 168 0
209 168 0
215 168 0
220 168 0
225 168 0
230 168 0
235 168 0
240 168 0
245 168 0
250 168 0
0 174 0
5 174 0
10 174 0
15 174 0
20 174 0
25 174 0
30 174 0
35 174 0
40 174 0
46 174 0
51 174 0
56 174 0
61 174 0
66 174 0
71 174 0
76 174 0
81 174 0
87 174 0
92 174 0
97 174 0
102 174 0
107 174 0
112 174 0
117 174 0
122 174 0
127 174 0
133 174 0
138 174 0
143 174 0
148 174 0
153 174 0
158 174 0
163 174 0
168 174 0
174 174 0
179 174 0
184 174 0
189 174 0
194 174 0
199 174 0
204 174 0
209 174 0
215 174 0
220 174 0
225 174 0
230 174 0
235 174 0
240 174 0
245 174 0
250 174 0
0 179 0
5 179 0
10 179 0
15 179 0
20 179 0
25 179 0
30 179 0
35 179 0
40 179 0
46 179 0
51 179 0
56 179 0
61 179 0
66 179 0
71 179 0
76 179 0
81 179 0
87 179 0
92 179 0
97 179 0
102 179 0
107 179 0
112 179 0
117 179 0
122 179 0
127 179 0
133 179 0
138 179 0
143 179 0
148 179 0
153 179 0
158 179 0
163 179 0
168 179 0
174 179 0
179 179 0
184 179 0
189 179 0
194 179 0
199 179 0
204 179 0
209 179 0
215 179 0
220 179 0
225 179 0
230 179 0
235 179 0
240 179 0
245 179 0
250 179 0
0 184 0
5 184 0
10 184 0
15 184 0
20 184 0
25 184 0
30 184 0
35 184 0
40 184 0
46 184 0
51 184 0
56 184 0
61 184 0
66 184 0
71 184 0
76 184 0
81 184 0
87 184 0
92 184 0
97 184 0
102 184 0
107 184 0
112 184 0
117 184 0
122 184 0
127 184 0
133 184 0
138 184 0
143 184 0
148 184 0
153 184 0
158 184 0
163 184 0
168 184 0
174 184 0
179 184 0
184 184 0
189 184 0
194 184 0
199 184 0
204 184 0
209 184 0
215 184 0
220 184 0
225 184 0
230 184 0
235 184 0
240 184 0
245 184 0
250 184 0
0 189 0
5 189 0
10 189 0
15 189 0
20 189 0
25 189 0
30 189 0
35 189 0
40 189 0
46 189 0
51 189 0
56 189 0
61 189 0
66 189 0
71 189 0
76 189 0
81 189 0
87 189 0
92 189 0
97 189 0
102 189 0
107 189 0
112 189 0
117 189 0
122 189 0
127 189 0
133 189 0
138 189 0
143 189 0
148 189 0
153 189 0
158 189 0
163 189 0
168 189 0
174 189 0
179 189 0
184 189 0
189 189 0
194 189 0
199 189 0
204 189 0
209 189 0
215 189 0
220 189 0
225 189 0
230 189 0
235 189 0
240 189 0
245 189 0
250 189 0
0 194 0
5 194 0
10 194 0
15 194 0
20 194 0
25 194 0
30 194 0
35 194 0
40 194 0
46 194 0
51 194 0
56 194 0
61 194 0
66 194 0
71 194 0
76 194 0
81 194 0
87 194 0
92 194 0
97 194 0
102 194 0
107 194 0
112 194 0
117 194 0
122 194 0
127 194 0
133 194 0
138 194 0
143 194 0
148 194 0
153 194 0
158 194 0
163 194 0
168 194 0
174 194 0
179 194 0
184 194 0
189 194 0
194 194 0
199 194 0
204 194 0
209 194 0
215 194 0
220 194 0
225 194 0
230 194 0
235 194 0
240 194 0
245 194 0
250 194 0
0 199 0
5 199 0
10 199 0
15 199 0
20 199 0
25 199 0
30 199 0
35 199 0
40 199 0
46 199 0
51 199 0
56 199 0
61 199 0
66 199 0
71 199 0
76 199 0
81 199 0
87 199 0
92 199 0
97 199 0
102 199 0
107 199 0
112 199 0
117 199 0
122 199 0
127 199 0
133 199 0
138 199 0
143 199 0
148 199 0
153 199 0
158 199 0
163 199 0
168 199 0
174 199 0
179 199 0
184 199 0
189 199 0
194 199 0
199 199 0
204 199 0
209 199 0
215 199 0
220 199 0
225 199 0
230 199 0
235 199 0
240 199 0
245 199 0
250 199 0
0 204 0
5 204 0
10 204 0
15 204 0
20 204 0
25 204 0
30 204 0
35 204 0
40 204 0
46 204 0
51 204 0
56 204 0
61 204 0
66 204 0
71 204 0
76 204 0
81 204 0
87 204 0
92 204 0
97 204 0
102 204 0
107 204 0
112 204 0
117 204 0
122 204 0
127 204 0
133 204 0
138 204 0
143 204 0
148 204 0
153 204 0
158 204 0
163 204 0
168 204 0
174 204 0
179 204 0
184 204 0
189 204 0
194 204 0
199 204 0
204 204 0
209 204 0
215 204 0
220 204 0
225 204 0
230 204 0
235 204 0
240 204 0
245 204 0
250 204 0
0 209 0
5 209 0
10 209 0
15 209 0
20 209 0
25 209 0
30 209 0
35 209 0
40 209 0
46 209 0
51 209 0
56 209 0
61 209 0
66 209 0
71 209 0
76 209 0
81 209 0
87 209 0
92 209 0
97 209 0
102 209 0
107 209 0
112 209 0
117 209 0
122 209 0
127 209 0
133 209 0
138 209 0
143 209 0
148 209 0
153 209 0
158 209 0
163 209 0
168 209 0
174 209 0
179 209 0
184 209 0
189 209 0
194 209 0
199 209 0
204 209 0
209 209 0
215 209 0
220 209 0
225 209 0
230 209 0
235 209 0
240 209 0
245 209 0
250 209 0
0 215 0
5 215 0
10 215 0
15 215 0
20 215 0
25 215 0
30 215 0
35 215 0
40 215 0
46 215 0
51 215 0
56 215 0
61 215 0
66 215 0
71 215 0
76 215 0
81 215 0
87 215 0
92 215 0
97 215 0
102 215 0
107 215 0
112 215 0
117 215 0
122 215 0
127 215 0
133 215 0
138 215 0
143 215 0
148 215 0
153 215 0
158 215 0
163 215 0
168 215 0
174 215 0
179 215 0
184 215 0
189 215 0
194 215 0
199 215 0
204 215 0
209 215 0
215 215 0
220 215 0
225 215 0
230 215 0
235 215 0
240 215 0
245 215 0
250 215 0
0 220 0
5 220 0
10 220 0
15 220 0
20 220 0
25 220 0
30 220 0
35 220 0
40 220 0
46 220 0
51 220 0
56 220 0
61 220 0
66 220 0
71 220 0
76 220 0
81 220 0
87 220 0
92 220 0
97 220 0
102 220 0
107 220 0
112 220 0
117 220 0
122 220 0
127 220 0
133 220 0
138 220 0
143 220 0
148 220 0
153 220 0
158 220 0
163 220 0
168 220 0
174 220 0
179 220 0
184 220 0
189 220 0
194 220 0
199 220 0
204 220 0
209 220 0
215 220 0
220 220 0
225 220 0
230 220 0
235 220 0
240 220 0
245 220 0
250 220 0
0 225 0
5 225 0
10 225 0
15 225 0
20 225 0
25 225 0
30 225 0
35 225 0
40 225 0
46 225 0
51 225 0
56 225 0
61 225 0
66 225 0
71 225 0
76 225 0
81 225 0
87 225 0
92 225 0
97 225 0
102 225 0
107 225 0
112 225 0
117 225 0
122 225 0
127 225 0
133 225 0
138 225 0
143 225 0
148 225 0
153 225 0
158 225 0
163 225 0
168 225 0
174 225 0
179 225 0
184 225 0
189 225 0
194 225 0
199 225 0
204 225 0
209 225 0
215 225 0
220 225 0
225 225 0
230 225 0
235 225 0
240 225 0
245 225 0
250 225 0
0 230 0
5 230 0
10 230 0
15 230 0
20 230 0
25 230 0
30 230 0
35 230 0
40 230 0
46 230 0
51 230 0
56 230 0
61 230 0
66 230 0
71 230 0
76 230 0
81 230 0
87 230 0
92 230 0
97 230 0
102 230 0
107 230 0
112 230 0
117 230 0
122 230 0
127 230 0
133 230 0
138 230 0
143 230 0
148 230 0
153 230 0
158 230 0
163 230 0
168 230 0
174 230 0
179 230 0
184 230 0
189 230 0
194 230 0
199 230 0
204 230 0
209 230 0
215 230 0
220 230 0
225 230 0
230 230 0
235 230 0
240 230 0
245 230 0
250 230 0
0 235 0
5 235 0
10 235 0
15 235 0
20 235 0
25 235 0
30 235 0
35 235 0
40 235 0
46 235 0
51 235 0
56 235 0
61 235 0
66 235 0
71 235 0
76 235 0
81 235 0
87 235 0
92 235 0
97 235 0
102 235 0
107 235 0
112 235 0
117 235 0
122 235 0
127 235 0
133 235 0
138 235 0
143 235 0
148 235 0
153 235 0
158 235 0
163 235 0
168 235 0
174 235 0
179 235 0
184 235 0
189 235 0
194 235 0
199 235 0
204 235 0
209 235 0
215 235 0
220 235 0
225 235 0
230 235 0
235 235 0
240 235 0
245 235 0
250 235 0
0 240 0
5 240 0
10 240 0
15 240 0
20 240 0
25 240 0
30 240 0
35 240 0
40 240 0
46 240 0
51 240 0
56 240 0
61 240 0
66 240 0
71 240 0
76 240 0
81 240 0
87 240 0
92 240 0
97 240 0
102 240 0
107 240 0
112 240 0
117 240 0
122 240 0
127 240 0
133 240 0
138 240 0
143 240 0
148 240 0
153 240 0
158 240 0
163 240 0
168 240 0
174 240 0
179 240 0
184 240 0
189 240 0
194 240 0
199 240 0
204 240 0
209 240 0
215 240 0
220 240 0
225 240 0
230 240 0
235 240 0
240 240 0
245 240 0
250 240 0
0 245 0
5 245 0
10 245 0
15 245 0
20 245 0
25 245 0
30 245 0
35 245 0
40 245 0
46 245 0
51 245 0
56 245 0
61 245 0
66 245 0
71 245 0
76 245 0
81 245 0
87 245 0
92 245 0
97 245 0
102 245 0
107 245 0
112 245 0
117 245 0
122 245 0
127 245 0
133 245 0
138 245 0
143 245 0
148 245 0
153 245 0
158 245 0
163 245 0
168 245 0
174 245 0
179 245 0
184 245 0
189 245 0
194 245 0
199 245 0
204 245 0
209 245 0
215 245 0
220 245 0
225 245 0
230 245 0
235 245 0
240 245 0
245 245 0
250 245 0
0 250 0
5 250 0
10 250 0
15 250 0
20 250 0
25 250 0
30 250 0
35 250 0
40 250 0
46 250 0
51 250 0
56 250 0
61 250 0
66 250 0
71 250 0
76 250 0
81 250 0
87 250 0
92 250 0
97 250 0
102 250 0
107 250 0
112 250 0
117 250 0
122 250 0
127 250 0
133 250 0
138 250 0
143 250 0
148 250 0
153 250 0
158 250 0
163 250 0
168 250 0
174 250 0
179 250 0
184 250 0
189 250 0
194 250 0
199 250 0
204 250 0
209 250 0
215 250 0
220 250 0
225 250 0
230 250 0
235 250 0
240 250 0
245 250 0
250 250 0
